<svg width="150" height="150" viewBox="0 0 150 150" fill="none" xmlns="http://www.w3.org/2000/svg">
<circle cx="75" cy="75" r="74" stroke="#8F8F8F" stroke-width="2"/>
<path fill-rule="evenodd" clip-rule="evenodd" d="M74.5 137C109.018 137 137 109.018 137 74.5C137 39.9822 109.018 12 74.5 12C39.9822 12 12 39.9822 12 74.5C12 109.018 39.9822 137 74.5 137ZM54.1276 73.5637C53.89 72.756 53.795 71.8059 53.795 70.6182H53.7V60.4041C53.7 56.9361 52.8449 54.3232 51.0871 52.6129C49.3293 50.9026 46.5739 50.0475 42.8208 50.0475C41.1536 50.0301 39.4917 50.2379 37.8801 50.6651C36.3123 51.0452 35.0296 51.5202 33.8894 52.1853C33.4619 52.3279 33.1768 52.5179 33.0343 52.7554C32.8443 52.993 32.7968 53.373 32.7968 53.8481V55.4158C32.7968 56.0809 33.0343 56.366 33.4619 56.366C33.6044 56.366 33.7469 56.366 33.9844 56.271L33.9845 56.271C34.1271 56.2234 34.5546 56.0809 35.0771 55.8909C36.1698 55.4158 37.31 55.0833 38.4977 54.7982C39.6378 54.5607 40.778 54.4182 41.9182 54.4182C44.3411 54.4182 46.0038 54.8458 47.049 55.8434C48.0466 56.9361 48.5217 58.5038 48.5217 60.9267V63.2071C47.2865 62.922 46.0038 62.6845 44.9111 62.542C43.6285 62.3519 42.6308 62.2569 41.5381 62.2569C38.3076 62.2569 35.7422 63.112 33.7944 64.7273C31.8941 66.4376 30.944 68.5754 30.944 71.1883C30.944 73.7537 31.7516 75.7965 33.2718 77.3167C34.8396 78.837 36.9299 79.5971 39.5903 79.5971C43.3434 79.5971 46.4314 78.1244 48.9018 75.2264C49.2343 75.939 49.5669 76.5566 49.8519 77.0792C50.1845 77.6018 50.5645 78.0769 50.9921 78.5519C51.3246 78.837 51.6097 79.027 51.9422 79.027C52.1798 79.027 52.4648 78.932 52.7499 78.742L54.7452 77.4118C55.1727 77.0792 55.3628 76.7942 55.3628 76.4616C55.3628 76.2241 55.3153 75.939 55.1252 75.749C54.6977 74.8939 54.3651 74.1338 54.1276 73.5637ZM44.1985 74.8939C43.0584 75.2739 42.0132 75.464 40.968 75.464C39.4953 75.464 38.4026 75.0839 37.6425 74.2763C36.8349 73.5637 36.5023 72.4235 36.5023 70.9033C36.5023 69.3355 36.9774 68.1478 38.0226 67.2927C39.0677 66.4376 40.588 66.01 42.7258 66.01C43.71 66.029 44.6928 66.0924 45.6713 66.2C46.0921 66.2957 46.4975 66.3528 46.8937 66.4086C47.4816 66.4915 48.0491 66.5715 48.6167 66.7701V68.0528C48.6167 68.6486 48.5461 69.1879 48.4819 69.6783C48.4283 70.0874 48.3792 70.4626 48.3792 70.8082C48.0941 71.5684 47.7141 72.2335 47.1915 72.8511C46.3364 73.8012 45.3387 74.5138 44.1985 74.8939ZM65.0068 78.5519C65.4194 78.7566 65.8767 78.8546 66.337 78.837H69.0449C69.491 78.8671 69.9363 78.7682 70.3276 78.5519C70.5651 78.3144 70.7552 77.8868 70.8977 77.2692L75.791 56.9361L80.6842 77.3167C80.7347 77.7796 80.9349 78.2133 81.2543 78.5519C81.6344 78.7895 81.9194 78.8845 82.537 78.8845H85.2449C85.7675 78.8845 86.1951 78.742 86.3851 78.5519C86.7177 78.3144 86.9077 77.9819 87.0977 77.3167L94.7464 52.898C94.8414 52.5654 94.9364 52.1853 94.9364 52.1853C94.9464 52.1358 94.9563 52.0883 94.9658 52.0428C95.0017 51.8705 95.0315 51.728 95.0315 51.6153C95.0315 51.0927 94.7464 50.8076 94.2238 50.8076H91.2784C90.7083 50.8076 90.3282 50.9501 90.0432 51.1402C89.8532 51.3302 89.6156 51.7578 89.4256 52.3754L84.0097 73.5637L78.974 52.3754C78.8314 51.7578 78.5939 51.3302 78.3564 51.1402C78.1188 50.9026 77.6913 50.8076 77.1212 50.8076H74.5083C73.9857 50.8076 73.5581 50.9501 73.3206 51.1402C73.0355 51.3302 72.8455 51.7578 72.703 52.3754L67.7622 73.2786L62.4889 52.3754C62.2989 51.7578 62.1088 51.3302 61.8238 51.1402C61.6338 50.9026 61.2062 50.8076 60.5886 50.8076H57.5006C56.978 50.8076 56.7405 51.0927 56.7405 51.6153C56.7405 51.8321 56.8197 52.1281 56.978 52.7202C56.9931 52.7767 57.009 52.8359 57.0255 52.898L64.4367 77.3167C64.6267 77.8868 64.8643 78.3144 65.0068 78.5519ZM102.063 79.122C103.63 79.5021 105.388 79.6921 106.956 79.6921C108.524 79.6921 110.139 79.5021 111.469 79.0745C112.799 78.647 113.987 78.0769 114.89 77.2692C115.935 76.5091 116.695 75.559 117.265 74.5138C117.788 73.4211 118.073 72.186 118.073 70.8557C118.073 69.193 117.597 67.7203 116.647 66.4376C115.65 65.1074 114.034 64.0622 111.754 63.3971L107.241 61.9719C105.578 61.4018 104.39 60.8317 103.773 60.2141C103.155 59.644 102.823 58.8839 102.823 57.9812C102.823 56.6985 103.345 55.7484 104.295 55.1783C105.388 54.5607 106.718 54.2757 108.524 54.2757C110.756 54.2757 112.799 54.7032 114.557 55.5109C115.127 55.7484 115.555 55.8909 115.792 55.8909C116.267 55.8909 116.505 55.5584 116.505 54.8933V53.373C116.505 52.9455 116.41 52.6129 116.22 52.3279C116.03 52.0428 115.697 51.8053 115.27 51.5677C114.89 51.3777 114.509 51.1877 113.939 50.9977C113.546 50.8665 113.152 50.7579 112.727 50.6407C112.537 50.5882 112.34 50.5339 112.134 50.4751C111.802 50.4276 111.469 50.3682 111.137 50.3088C110.804 50.2494 110.471 50.19 110.139 50.1425C109.379 50.0475 108.666 50 108.001 50C106.576 50 105.246 50.19 104.01 50.5701C102.728 50.9501 101.682 51.4727 100.637 52.1853C99.7822 52.898 99.0221 53.7531 98.452 54.7982C97.8819 55.7959 97.5969 56.9361 97.5969 58.2663C97.593 59.9339 98.1446 61.5552 99.1646 62.8745C100.21 64.2997 101.92 65.3449 104.2 66.105L108.809 67.5302C110.329 68.0053 111.422 68.5754 111.992 69.1455C112.514 69.7631 112.847 70.4757 112.847 71.3783C112.847 72.661 112.277 73.5637 111.184 74.3713C110.139 75.0839 108.571 75.4165 106.576 75.4165C105.388 75.4165 104.105 75.2739 102.823 75.0364C101.587 74.7989 100.4 74.4188 99.3546 73.9437C99.2213 73.8866 99.0955 73.8141 98.9805 73.7479C98.8087 73.6489 98.6608 73.5637 98.547 73.5637H97.9769C97.5018 73.5637 97.2643 73.8487 97.2643 74.5138V76.1291C97.2588 76.4252 97.3239 76.7183 97.4543 76.9842C97.6921 77.3756 98.0388 77.6893 98.452 77.8868C99.2596 78.3144 100.495 78.742 102.063 79.122ZM74.5083 106.819C87.3828 106.819 102.49 102.733 112.894 95.0845C114.605 93.8018 113.132 91.854 111.374 92.5666C99.7347 97.6024 87.0502 99.9778 75.5059 99.9778C58.4033 99.9778 41.9182 95.2745 28.5211 87.5308C27.3334 86.8182 26.4308 88.0059 27.4284 88.9086C39.8279 100.073 56.2179 106.819 74.5083 106.819ZM105.365 89.6812C108.864 89.2851 115.928 88.4855 117.265 90.1913C118.54 91.7973 115.777 98.7575 114.484 102.012L114.462 102.068C114.082 102.923 114.89 103.303 115.792 102.591C121.351 97.935 122.776 88.1484 121.636 86.7232C120.543 85.4405 110.756 84.1578 104.818 88.291C103.915 88.9561 104.058 89.8587 105.056 89.7162C105.155 89.7049 105.259 89.6933 105.365 89.6812Z" fill="#8F8F8F"/>
</svg>
