<svg width="150" height="150" viewBox="0 0 150 150" fill="none" xmlns="http://www.w3.org/2000/svg">
<circle cx="75" cy="75" r="74" stroke="#8F8F8F" stroke-width="2"/>
<g clip-path="url(#clip0_84_54)">
<path d="M105.27 129.707C104.805 129.953 104.844 130.031 105.289 129.805C105.434 129.746 105.555 129.664 105.66 129.566C105.66 129.484 105.66 129.484 105.27 129.707ZM106.207 129.199C105.984 129.383 105.984 129.383 106.25 129.262C106.391 129.18 106.516 129.101 106.516 129.078C106.516 128.973 106.453 128.996 106.207 129.199ZM106.816 128.832C106.594 129.016 106.594 129.016 106.859 128.894C107.004 128.812 107.125 128.726 107.125 128.707C107.125 128.609 107.062 128.629 106.816 128.832ZM107.434 128.469C107.211 128.652 107.211 128.652 107.469 128.527C107.613 128.449 107.734 128.367 107.734 128.344C107.734 128.246 107.672 128.266 107.434 128.469ZM108.266 127.918C107.84 128.203 107.691 128.387 108.082 128.183C108.344 128.023 108.789 127.672 108.711 127.672C108.543 127.734 108.402 127.84 108.262 127.918H108.266ZM70.9102 12.5429C70.625 12.5624 69.7695 12.6405 69.0195 12.703C51.2539 14.3124 34.6328 23.8749 24.0977 38.6054C18.2734 46.6796 14.4922 56.0585 13.0664 65.9062C12.5625 69.3437 12.5 70.3593 12.5 75.0194C12.5 79.6757 12.5625 80.6757 13.0664 84.1132C16.4687 107.594 33.1719 127.305 55.8125 134.609C59.8867 135.91 64.1562 136.808 69.0195 137.359C70.9102 137.562 79.0859 137.562 80.9766 137.359C89.3828 136.422 96.4805 134.348 103.504 130.766C104.582 130.219 104.785 130.074 104.641 129.953C101.203 125.418 97.8281 120.879 94.4492 116.301L84.4609 102.812L71.9492 84.2772C67.7773 78.0741 63.5898 71.8866 59.3359 65.746C59.293 65.746 59.2383 73.9843 59.2148 84.0311C59.1719 101.629 59.1719 102.344 58.9492 102.75C58.7266 103.238 58.3594 103.644 57.8711 103.871C57.4844 104.055 57.1367 104.094 55.2891 104.094H53.1758L52.625 103.75C52.2812 103.527 51.9961 103.219 51.8125 102.855L51.5469 102.305L51.5664 77.8085L51.6094 53.3124L51.9961 52.8241C52.2422 52.5233 52.5469 52.2772 52.8906 52.0937C53.4023 51.8476 53.6055 51.8085 55.7187 51.8085C58.1992 51.8085 58.6094 51.9062 59.2617 52.621C64.3242 60.1679 69.3711 67.7343 74.3359 75.3241C82.457 87.6366 93.543 104.437 98.9922 112.68L108.902 127.676L109.391 127.351C114.152 124.176 118.484 120.394 122.223 116.082C130.098 107.066 135.207 95.9765 136.937 84.1405C137.441 80.703 137.504 79.6835 137.504 75.0272C137.504 70.3671 137.441 69.371 136.937 65.9335C133.535 42.453 116.832 22.7421 94.1914 15.4335C89.957 14.0937 85.6016 13.1796 81.1914 12.7108C80.0078 12.5897 71.9297 12.4452 70.9141 12.5507L70.9102 12.5429ZM96.4844 50.3437C97.0742 50.6249 97.5195 51.1562 97.7226 51.7655C97.8281 52.0937 97.8476 58.8866 97.8281 74.1874L97.7851 96.1561L93.9219 90.2186L90.0352 84.2772V68.328C90.0352 57.9882 90.0781 52.1913 90.1328 51.9062C90.3164 51.2538 90.7617 50.7069 91.3555 50.3632C91.8398 50.1171 92.0273 50.0976 93.9609 50.0976C95.7695 50.0976 96.0781 50.1171 96.4844 50.3437Z" fill="#8F8F8F"/>
</g>
<defs>
<clipPath id="clip0_84_54">
<rect width="125" height="125" fill="white" transform="translate(12.5 12.5)"/>
</clipPath>
</defs>
</svg>
