<svg width="150" height="150" viewBox="0 0 150 150" fill="none" xmlns="http://www.w3.org/2000/svg">
<circle cx="75" cy="75" r="74" stroke="#2E2E2E" stroke-width="2"/>
<g clip-path="url(#clip0_84_11)">
<path d="M105.27 129.707C104.805 129.953 104.844 130.031 105.289 129.804C105.434 129.746 105.555 129.664 105.66 129.566C105.66 129.484 105.66 129.484 105.27 129.707ZM106.207 129.199C105.984 129.382 105.984 129.382 106.25 129.261C106.391 129.179 106.516 129.101 106.516 129.078C106.516 128.972 106.453 128.996 106.207 129.199ZM106.816 128.832C106.594 129.015 106.594 129.015 106.859 128.894C107.004 128.812 107.125 128.726 107.125 128.707C107.125 128.609 107.062 128.629 106.816 128.832ZM107.434 128.468C107.211 128.652 107.211 128.652 107.469 128.527C107.613 128.449 107.734 128.367 107.734 128.343C107.734 128.246 107.672 128.265 107.434 128.468ZM108.266 127.918C107.84 128.203 107.691 128.386 108.082 128.183C108.344 128.023 108.789 127.672 108.711 127.672C108.543 127.734 108.402 127.839 108.262 127.918H108.266ZM70.9102 12.5426C70.625 12.5622 69.7695 12.6403 69.0195 12.7028C51.2539 14.3122 34.6328 23.8747 24.0977 38.6051C18.2734 46.6793 14.4922 56.0583 13.0664 65.9059C12.5625 69.3434 12.5 70.359 12.5 75.0192C12.5 79.6754 12.5625 80.6754 13.0664 84.1129C16.4687 107.593 33.1719 127.304 55.8125 134.609C59.8867 135.91 64.1562 136.808 69.0195 137.359C70.9102 137.562 79.0859 137.562 80.9766 137.359C89.3828 136.422 96.4805 134.347 103.504 130.765C104.582 130.218 104.785 130.074 104.641 129.953C101.203 125.418 97.8281 120.879 94.4492 116.3L84.4609 102.812L71.9492 84.277C67.7773 78.0739 63.5898 71.8864 59.3359 65.7457C59.293 65.7457 59.2383 73.984 59.2148 84.0309C59.1719 101.629 59.1719 102.343 58.9492 102.75C58.7266 103.238 58.3594 103.644 57.8711 103.871C57.4844 104.054 57.1367 104.093 55.2891 104.093H53.1758L52.625 103.75C52.2812 103.527 51.9961 103.218 51.8125 102.855L51.5469 102.304L51.5664 77.8082L51.6094 53.3122L51.9961 52.8239C52.2422 52.5231 52.5469 52.277 52.8906 52.0934C53.4023 51.8473 53.6055 51.8083 55.7187 51.8083C58.1992 51.8083 58.6094 51.9059 59.2617 52.6208C64.3242 60.1676 69.3711 67.734 74.3359 75.3239C82.457 87.6364 93.543 104.437 98.9922 112.679L108.902 127.675L109.391 127.351C114.152 124.175 118.484 120.394 122.223 116.082C130.098 107.066 135.207 95.9762 136.937 84.1403C137.441 80.7028 137.504 79.6832 137.504 75.027C137.504 70.3668 137.441 69.3708 136.937 65.9333C133.535 42.4528 116.832 22.7418 94.1914 15.4333C89.957 14.0934 85.6016 13.1793 81.1914 12.7106C80.0078 12.5895 71.9297 12.445 70.9141 12.5504L70.9102 12.5426ZM96.4844 50.3434C97.0742 50.6247 97.5195 51.1559 97.7226 51.7653C97.8281 52.0934 97.8476 58.8864 97.8281 74.1872L97.7851 96.1559L93.9219 90.2184L90.0352 84.277V68.3278C90.0352 57.9879 90.0781 52.1911 90.1328 51.9059C90.3164 51.2536 90.7617 50.7067 91.3555 50.3629C91.8398 50.1168 92.0273 50.0973 93.9609 50.0973C95.7695 50.0973 96.0781 50.1168 96.4844 50.3434Z" fill="#2E2E2E"/>
</g>
<defs>
<clipPath id="clip0_84_11">
<rect width="125" height="125" fill="white" transform="translate(12.5 12.4998)"/>
</clipPath>
</defs>
</svg>
