<svg width="150" height="150" viewBox="0 0 150 150" fill="none" xmlns="http://www.w3.org/2000/svg">
<circle cx="75" cy="75" r="74" stroke="#2E2E2E" stroke-width="2"/>
<path fill-rule="evenodd" clip-rule="evenodd" d="M75 137.5C109.518 137.5 137.5 109.518 137.5 75C137.5 40.4822 109.518 12.5 75 12.5C40.4822 12.5 12.5 40.4822 12.5 75C12.5 109.518 40.4822 137.5 75 137.5ZM71.0721 123.968C72.2605 124.643 73.6303 125 74.9799 125C76.3496 125 77.6992 124.643 78.8876 123.968L116.092 102.815C118.509 101.426 120 98.8665 120 96.1281V53.8421C120 51.0839 118.509 48.5242 116.092 47.155L78.8876 25.9822C76.551 24.6726 73.4288 24.6726 71.0721 25.9822L33.9078 47.1351C31.4906 48.5043 30 51.0839 30 53.8223V96.1082C30 98.8665 31.4906 101.426 33.9078 102.795L43.6571 108.332C48.3706 110.633 50.0627 110.633 52.218 110.633C59.2077 110.633 63.2363 106.466 63.2363 99.2038V57.4338C63.2363 56.8385 62.7328 56.3821 62.1486 56.3821H57.4351C56.8308 56.3821 56.3474 56.8385 56.3474 57.4338V99.184C56.3474 102.418 52.9633 105.613 47.4239 102.895L37.2314 97.1004C36.8688 96.9218 36.6473 96.525 36.6473 96.1281V53.8421C36.6473 53.4254 36.8688 53.0286 37.2314 52.8301L74.3957 31.6772C74.7381 31.4788 75.2014 31.4788 75.5439 31.6772L112.728 52.8103C113.091 53.0286 113.312 53.4056 113.312 53.8223V96.1281C113.312 96.525 113.091 96.9218 112.748 97.1203L75.5439 118.273C75.2216 118.472 74.7381 118.472 74.3957 118.273L64.8478 112.697C64.5658 112.519 64.2032 112.459 63.9212 112.618C61.2825 114.106 60.7789 114.285 58.3013 115.138C57.697 115.336 56.7905 115.694 58.6437 116.725L71.0721 123.968ZM88.1535 71.8003C99.5748 73.2885 105.013 75.3919 105.013 83.3094C105.013 91.2863 98.2453 95.8701 86.4816 95.89C70.1858 95.89 66.7816 88.5281 66.7816 82.3569C66.7816 81.7814 67.2449 81.3052 67.8492 81.3052H72.6634C73.2073 81.3052 73.6504 81.6822 73.731 82.1981C74.4561 87.02 76.6115 89.4608 86.4615 89.4608C94.2972 89.4608 97.641 87.7146 97.641 83.6269C97.641 81.2655 96.6943 79.4995 84.5076 78.3287C74.3353 77.3365 68.0304 75.1141 68.0304 67.0974C68.0304 59.6959 74.3554 55.2907 84.9709 55.2907C96.8957 55.2907 102.798 59.3586 103.543 68.1094C103.563 68.4071 103.462 68.7047 103.261 68.923C103.06 69.1413 102.778 69.2603 102.475 69.2603H97.641C97.1374 69.2603 96.6943 68.9032 96.5936 68.4269C95.4252 63.3471 92.6052 61.7199 84.9709 61.7199C76.41 61.7199 75.423 64.6567 75.423 66.8593C75.423 69.5183 76.5913 70.2922 88.1535 71.8003Z" fill="#2E2E2E"/>
</svg>
