<svg width="150" height="150" viewBox="0 0 150 150" fill="none" xmlns="http://www.w3.org/2000/svg">
<circle cx="75" cy="75" r="74" stroke="#8F8F8F" stroke-width="2"/>
<path fill-rule="evenodd" clip-rule="evenodd" d="M75 137.5C109.518 137.5 137.5 109.518 137.5 75C137.5 40.4822 109.518 12.5 75 12.5C40.4822 12.5 12.5 40.4822 12.5 75C12.5 109.518 40.4822 137.5 75 137.5ZM102.59 58.1933C103.592 58.5153 104.594 58.8574 105.596 59.2197C115.689 62.9831 123 68.9 123 74.9981C123 81.3778 115.244 87.5966 104.538 91.4406C103.963 91.6418 103.388 91.8431 102.794 92.0242C102.998 92.95 103.184 93.8556 103.351 94.7412C105.466 106.333 103.833 115.853 98.8232 118.992C93.9805 122.031 86.1318 119.033 78.1904 111.626C77.3369 110.821 76.4834 109.996 75.667 109.131C75.0176 109.815 74.3682 110.459 73.7187 111.083C65.5176 118.872 57.0938 122.092 52.084 118.952C47.2227 115.913 45.7012 107.058 47.6494 95.8883C47.8721 94.6607 48.1133 93.4732 48.3916 92.2657C47.5381 92.0041 46.7031 91.7022 45.8682 91.4003C35.5703 87.5765 28 81.2772 28 74.9981C28 68.9202 35.1064 63.0435 45.0146 59.3203C46.1094 58.8977 47.2783 58.4952 48.4658 58.1329C48.2061 57.0059 47.9834 55.899 47.7793 54.7719C45.7383 43.4212 47.1855 34.3446 52.0469 31.2855C57.1123 28.0856 65.5732 31.5069 74.0156 39.6376C74.5352 40.1407 75.0547 40.664 75.5557 41.1873C76.2978 40.4024 77.0771 39.6175 77.875 38.8728C85.9277 31.2654 93.8877 28.1057 98.7676 31.1446C103.833 34.3245 105.336 43.9646 103.054 55.9594L103.054 55.9594C102.905 56.7041 102.757 57.4487 102.59 58.1933ZM96.7637 34.888C93.832 33.0566 87.3936 35.6125 80.4912 42.1331C79.749 42.8375 79.0439 43.5419 78.3203 44.2866C81.1777 47.6475 83.8125 51.2299 86.2246 54.9732C90.418 55.3757 94.5928 56.1002 98.7119 57.1065C98.8789 56.4424 99.0088 55.7782 99.1387 55.094C101.105 44.7293 99.8994 36.8401 96.7637 34.888ZM61.9551 90.6557C60.9346 88.945 59.9697 87.1941 59.0234 85.4432C58.0957 83.7124 57.2236 81.9615 56.3701 80.1904C55.1826 83.2495 54.1621 86.2482 53.3457 89.1463C56.1846 89.8104 59.0605 90.3136 61.9551 90.6557ZM61.8623 59.6624C58.9121 60.0649 56.0732 60.5882 53.4014 61.2322C54.2178 64.0699 55.2012 67.0082 56.3701 70.0069C57.2051 68.2359 58.0957 66.485 59.0049 64.7743C59.9141 63.0435 60.8789 61.3329 61.8623 59.6624ZM62.4561 66.9277C61.0459 69.6044 59.71 72.3214 58.4854 75.0987C59.7285 77.876 61.0459 80.5929 62.4746 83.2696C63.9033 85.9463 65.4248 88.5626 67.0391 91.1186C69.7666 91.2997 72.5869 91.4003 75.5 91.4003C78.4131 91.4003 81.2891 91.2997 84.0537 91.0783C85.6309 88.5023 87.1338 85.9061 88.5439 83.2294C89.9726 80.5326 91.3086 77.7955 92.5518 75.0182C91.29 72.261 89.9541 69.5441 88.5254 66.8875C87.0967 64.2309 85.5937 61.6347 84.0166 59.0989C81.252 58.8775 78.3945 58.7568 75.5 58.7568C72.6055 58.7568 69.7666 58.8775 66.9834 59.0989C65.3877 61.6549 63.8662 64.251 62.4561 66.9277ZM94.7041 80.0294C93.832 81.8407 92.9414 83.6319 91.9951 85.4029C91.0674 87.1337 90.1211 88.8645 89.1191 90.5551C92.0508 90.1928 94.9639 89.6494 97.8398 88.945C96.9307 85.9061 95.8916 82.9476 94.7041 80.0294ZM91.9766 64.7341C92.9043 66.4649 93.7949 68.2359 94.667 70.0069C95.7988 67.1491 96.8008 64.251 97.6543 61.2725C94.9824 60.6083 92.125 60.0649 89.1377 59.6624C90.1211 61.3329 91.0674 63.0234 91.9766 64.7341ZM81.0293 54.5707C79.3223 52.0751 77.4854 49.6601 75.5371 47.3658C73.6816 49.5595 71.8076 51.9745 69.9893 54.5707C73.6631 54.3896 77.3555 54.3896 81.0293 54.5707ZM71.3438 42.8778C64.0518 35.8741 57.1309 33.0566 54.0137 35.0289C51.082 36.8603 49.9316 44.2061 51.6758 53.9468L51.6758 53.9469C51.8799 54.9934 52.084 56.0399 52.3252 57.0663C56.4443 56.0801 60.6006 55.3757 64.7939 54.9732C67.2246 51.2299 69.8779 47.6475 72.7539 44.2866C72.6003 44.1327 72.4485 43.9789 72.298 43.8264C71.976 43.5 71.6599 43.1795 71.3438 42.8778ZM47.167 87.2947C47.9277 87.5765 48.6885 87.8381 49.4678 88.0796C50.748 83.652 52.2881 79.3049 54.0693 75.0987C52.3066 70.9528 50.7852 66.6661 49.5234 62.2989C48.4473 62.641 47.3711 63.0033 46.3135 63.4058C37.8525 66.6057 31.9893 71.3151 31.9893 74.9981C32.3418 77.4332 33.6035 79.6068 35.4775 81.0156C38.7246 83.813 43.2148 85.9463 47.167 87.2947ZM60.6377 114.907C64.4971 113.257 68.041 110.842 71.1025 107.803C71.6963 107.239 72.29 106.635 72.8838 106.011C70.0078 102.63 67.3174 99.0279 64.8682 95.2644C60.6191 94.9223 56.4258 94.2581 52.2695 93.2921C52.0098 94.399 51.7871 95.526 51.583 96.6531C49.9131 106.213 51.1377 113.317 54.0879 115.169C56.2031 116.074 58.5781 115.974 60.6377 114.907ZM70.0264 95.6065C71.8633 98.243 73.7559 100.698 75.6484 102.912C77.5967 100.578 79.4336 98.1424 81.1406 95.5864C79.2852 95.687 77.4111 95.7273 75.5 95.7273C73.6445 95.7273 71.8076 95.687 70.0264 95.6065ZM96.8379 115.249C98.6191 113.699 99.7324 111.405 99.8994 108.95C100.493 104.482 100.345 99.9537 99.4355 95.6065C99.2871 94.8015 99.1201 93.9764 98.9346 93.1512C94.7598 94.1776 90.5293 94.882 86.2803 95.2644C83.9053 99.048 81.2891 102.65 78.4502 106.052C79.248 106.857 80.0273 107.642 80.8066 108.366C87.5977 114.686 93.8877 117.101 96.8379 115.249ZM101.699 87.8381C102.237 87.6771 102.757 87.496 103.276 87.3148C112.535 83.9941 119.011 78.9024 119.011 74.9578C119.011 71.295 112.943 66.5051 104.297 63.285C103.406 62.963 102.479 62.641 101.514 62.3391C100.252 66.6661 98.749 70.8925 96.9678 74.9981C98.8047 79.164 100.4 83.4508 101.699 87.8381ZM83.998 75.0786C83.998 80.1703 80.1943 84.296 75.5 84.296C70.8057 84.296 67.0019 80.1703 67.0019 75.0786C67.0019 69.9868 70.8057 65.8611 75.5 65.8611C80.1943 65.8611 83.998 69.9868 83.998 75.0786Z" fill="#8F8F8F"/>
</svg>
