<svg width="150" height="150" viewBox="0 0 150 150" fill="none" xmlns="http://www.w3.org/2000/svg">
<circle cx="75" cy="75" r="74" stroke="#2E2E2E" stroke-width="2"/>
<path fill-rule="evenodd" clip-rule="evenodd" d="M74.5 137C109.018 137 137 109.018 137 74.5C137 39.9822 109.018 12 74.5 12C39.9822 12 12 39.9822 12 74.5C12 109.018 39.9822 137 74.5 137ZM57.2583 57.7188C58.0691 58.5069 58.9532 59.2184 59.8989 59.8438H59.902C60.9703 53.4125 66.4036 49.425 74.0813 49.425C81.8858 49.425 86.1652 53.2062 87.877 58.0625H103.388C100.947 45.75 91.0533 37 73.9545 37C65.1135 37 57.6957 39.9031 52.8837 44.7719V46.5687C52.8837 51.2594 54.3641 54.875 57.2583 57.7188ZM70.6609 65.8719C57.7528 62.7 51.3051 56.6813 51.3051 46.5687C48.4394 50.2294 46.9062 54.7357 46.959 59.3594C46.959 71.3094 55.258 76.8594 66.0137 79.2344L79.4417 82.1906C93.5798 85.7562 99.4442 91.6875 99.4442 102.659C102.478 98.8999 104.088 94.2156 103.996 89.4125C103.996 78.4125 96.5596 71.6625 84.3425 68.9437L70.6609 65.8719ZM76.0277 99.4344C84.2886 99.4344 89.9946 95.4969 90.9202 88.5125V88.5156C91.8884 89.1646 92.7879 89.9079 93.6051 90.7344C96.4867 93.6719 97.8592 97.4719 97.8592 102.659V104.378C92.8729 109.281 85.1096 112 76.145 112C59.36 112 47.6121 104 45 90.0906H61.1193C63.1956 96.4781 68.6924 99.4344 76.0277 99.4344Z" fill="#2E2E2E"/>
</svg>
