<svg width="75" height="74" viewBox="0 0 75 74" fill="none" xmlns="http://www.w3.org/2000/svg">
<mask id="path-1-inside-1_14_1569" fill="white">
<path d="M74.5342 37C74.5342 57.4345 57.9687 74 37.5342 74C17.0996 74 0.53418 57.4345 0.53418 37C0.53418 16.5655 17.0996 0 37.5342 0C57.9687 0 74.5342 16.5655 74.5342 37ZM22.7342 37C22.7342 45.1738 29.3604 51.8 37.5342 51.8C45.708 51.8 52.3342 45.1738 52.3342 37C52.3342 28.8262 45.708 22.2 37.5342 22.2C29.3604 22.2 22.7342 28.8262 22.7342 37Z"/>
</mask>
<path d="M74.5342 37C74.5342 57.4345 57.9687 74 37.5342 74C17.0996 74 0.53418 57.4345 0.53418 37C0.53418 16.5655 17.0996 0 37.5342 0C57.9687 0 74.5342 16.5655 74.5342 37ZM22.7342 37C22.7342 45.1738 29.3604 51.8 37.5342 51.8C45.708 51.8 52.3342 45.1738 52.3342 37C52.3342 28.8262 45.708 22.2 37.5342 22.2C29.3604 22.2 22.7342 28.8262 22.7342 37Z" fill="#4D63B2" stroke="#8F8F8F" stroke-width="4" mask="url(#path-1-inside-1_14_1569)"/>
</svg>
