<svg width="56" height="57" viewBox="0 0 56 57" fill="none" xmlns="http://www.w3.org/2000/svg">
<mask id="path-1-inside-1_14_1574" fill="white">
<path fill-rule="evenodd" clip-rule="evenodd" d="M47.2486 2.3233C45.296 0.370681 42.1301 0.370684 40.1775 2.32331L31.4609 11.04C29.5082 12.9926 26.3424 12.9926 24.3898 11.04L15.6731 2.32326C13.7205 0.37064 10.5547 0.370639 8.60203 2.32326L1.63964 9.28566C-0.312987 11.2383 -0.312984 14.4041 1.63964 16.3567L10.3563 25.0734C12.309 27.026 12.309 30.1919 10.3563 32.1445L1.63984 40.861C-0.312781 42.8136 -0.312781 45.9794 1.63984 47.9321L8.60224 54.8945C10.5549 56.8471 13.7207 56.8471 15.6733 54.8944L24.3898 46.178C26.3424 44.2253 29.5082 44.2253 31.4609 46.178L40.1773 54.8944C42.1299 56.847 45.2958 56.847 47.2484 54.8944L54.2108 47.932C56.1634 45.9794 56.1634 42.8136 54.2108 40.8609L45.4943 32.1445C43.5417 30.1919 43.5417 27.026 45.4943 25.0734L54.211 16.3568C56.1636 14.4041 56.1636 11.2383 54.211 9.2857L47.2486 2.3233Z"/>
</mask>
<path fill-rule="evenodd" clip-rule="evenodd" d="M47.2486 2.3233C45.296 0.370681 42.1301 0.370684 40.1775 2.32331L31.4609 11.04C29.5082 12.9926 26.3424 12.9926 24.3898 11.04L15.6731 2.32326C13.7205 0.37064 10.5547 0.370639 8.60203 2.32326L1.63964 9.28566C-0.312987 11.2383 -0.312984 14.4041 1.63964 16.3567L10.3563 25.0734C12.309 27.026 12.309 30.1919 10.3563 32.1445L1.63984 40.861C-0.312781 42.8136 -0.312781 45.9794 1.63984 47.9321L8.60224 54.8945C10.5549 56.8471 13.7207 56.8471 15.6733 54.8944L24.3898 46.178C26.3424 44.2253 29.5082 44.2253 31.4609 46.178L40.1773 54.8944C42.1299 56.847 45.2958 56.847 47.2484 54.8944L54.2108 47.932C56.1634 45.9794 56.1634 42.8136 54.2108 40.8609L45.4943 32.1445C43.5417 30.1919 43.5417 27.026 45.4943 25.0734L54.211 16.3568C56.1636 14.4041 56.1636 11.2383 54.211 9.2857L47.2486 2.3233Z" fill="#4D63B2"/>
<path d="M47.2486 2.3233L45.8344 3.73752L47.2486 2.3233ZM15.6731 2.32326L17.0873 0.909048L15.6731 2.32326ZM1.63964 16.3567L3.05385 14.9425L1.63964 16.3567ZM1.63984 47.9321L0.225628 49.3463L1.63984 47.9321ZM8.60224 54.8945L10.0165 53.4802L8.60224 54.8945ZM15.6733 54.8944L17.0875 56.3087L15.6733 54.8944ZM40.1773 54.8944L41.5915 53.4802L40.1773 54.8944ZM54.2108 40.8609L52.7966 42.2752L54.2108 40.8609ZM54.211 9.2857L55.6252 7.87148L54.211 9.2857ZM24.3898 46.178L25.804 47.5922L24.3898 46.178ZM10.3563 25.0734L8.94212 26.4876L10.3563 25.0734ZM24.3898 11.04L22.9756 12.4542L24.3898 11.04ZM41.5917 3.73752C42.7633 2.56594 44.6628 2.56595 45.8344 3.73752L48.6628 0.909088C45.9291 -1.82458 41.497 -1.82458 38.7633 0.909091L41.5917 3.73752ZM32.8751 12.4542L41.5917 3.73752L38.7633 0.909091L30.0467 9.62575L32.8751 12.4542ZM14.2589 3.73748L22.9756 12.4542L25.804 9.62575L17.0873 0.909048L14.2589 3.73748ZM10.0162 3.73748C11.1878 2.5659 13.0873 2.5659 14.2589 3.73748L17.0873 0.909048C14.3536 -1.82462 9.92149 -1.82462 7.18782 0.909048L10.0162 3.73748ZM3.05385 10.6999L10.0162 3.73748L7.18782 0.909048L0.225422 7.87144L3.05385 10.6999ZM3.05385 14.9425C1.88228 13.7709 1.88228 11.8714 3.05385 10.6999L0.225422 7.87144C-2.50825 10.6051 -2.50825 15.0373 0.225423 17.7709L3.05385 14.9425ZM11.7705 23.6592L3.05385 14.9425L0.225423 17.7709L8.94212 26.4876L11.7705 23.6592ZM3.05406 42.2752L11.7705 33.5587L8.94212 30.7303L0.225628 39.4468L3.05406 42.2752ZM3.05406 46.5178C1.88248 45.3463 1.88248 43.4468 3.05406 42.2752L0.225628 39.4468C-2.50804 42.1804 -2.50804 46.6126 0.225628 49.3463L3.05406 46.5178ZM10.0165 53.4802L3.05406 46.5178L0.225628 49.3463L7.18802 56.3087L10.0165 53.4802ZM14.2591 53.4802C13.0875 54.6518 11.188 54.6518 10.0165 53.4802L7.18802 56.3087C9.9217 59.0423 14.3539 59.0423 17.0875 56.3087L14.2591 53.4802ZM22.9756 44.7637L14.2591 53.4802L17.0875 56.3087L25.804 47.5922L22.9756 44.7637ZM41.5915 53.4802L32.8751 44.7637L30.0467 47.5922L38.7631 56.3086L41.5915 53.4802ZM45.8342 53.4802C44.6626 54.6518 42.7631 54.6518 41.5915 53.4802L38.7631 56.3086C41.4968 59.0423 45.9289 59.0423 48.6626 56.3086L45.8342 53.4802ZM52.7966 46.5178L45.8342 53.4802L48.6626 56.3086L55.625 49.3462L52.7966 46.5178ZM52.7966 42.2752C53.9681 43.4467 53.9681 45.3462 52.7966 46.5178L55.625 49.3462C58.3587 46.6126 58.3587 42.1804 55.625 39.4467L52.7966 42.2752ZM44.0801 33.5587L52.7966 42.2752L55.625 39.4467L46.9085 30.7303L44.0801 33.5587ZM52.7968 14.9426L44.0801 23.6592L46.9085 26.4876L55.6252 17.771L52.7968 14.9426ZM52.7968 10.6999C53.9684 11.8715 53.9684 13.771 52.7968 14.9426L55.6252 17.771C58.3589 15.0373 58.3589 10.6052 55.6252 7.87148L52.7968 10.6999ZM45.8344 3.73752L52.7968 10.6999L55.6252 7.87148L48.6628 0.909088L45.8344 3.73752ZM46.9085 30.7303C45.737 29.5587 45.737 27.6592 46.9085 26.4876L44.0801 23.6592C41.3464 26.3929 41.3464 30.825 44.0801 33.5587L46.9085 30.7303ZM25.804 47.5922C26.9756 46.4206 28.8751 46.4206 30.0467 47.5922L32.8751 44.7637C30.1414 42.0301 25.7093 42.0301 22.9756 44.7637L25.804 47.5922ZM8.94212 26.4876C10.1137 27.6592 10.1137 29.5587 8.94212 30.7303L11.7705 33.5587C14.5042 30.825 14.5042 26.3929 11.7705 23.6592L8.94212 26.4876ZM30.0467 9.62575C28.8751 10.7973 26.9756 10.7973 25.804 9.62575L22.9756 12.4542C25.7093 15.1878 30.1414 15.1878 32.8751 12.4542L30.0467 9.62575Z" fill="#8F8F8F" mask="url(#path-1-inside-1_14_1574)"/>
</svg>
