<svg width="56" height="57" viewBox="0 0 56 57" fill="none" xmlns="http://www.w3.org/2000/svg">
<mask id="path-1-inside-1_3_48" fill="white">
<path fill-rule="evenodd" clip-rule="evenodd" d="M47.1451 2.3233C45.1925 0.370681 42.0266 0.370684 40.074 2.32331L29.236 13.1613C28.455 13.9423 27.1887 13.9423 26.4076 13.1613L15.5696 2.32326C13.617 0.37064 10.4511 0.370639 8.49852 2.32326L1.53612 9.28566C-0.416503 11.2383 -0.4165 14.4041 1.53612 16.3567L12.3741 27.1947C13.1552 27.9758 13.1552 29.2421 12.3741 30.0232L1.53633 40.861C-0.416296 42.8136 -0.416296 45.9794 1.53633 47.9321L8.49872 54.8945C10.4513 56.8471 13.6172 56.8471 15.5698 54.8944L26.4076 44.0566C27.1886 43.2756 28.455 43.2756 29.236 44.0566L40.0738 54.8944C42.0264 56.847 45.1922 56.847 47.1449 54.8944L54.1073 47.932C56.0599 45.9794 56.0599 42.8136 54.1073 40.8609L43.2695 30.0232C42.4884 29.2421 42.4884 27.9758 43.2695 27.1947L54.1075 16.3568C56.0601 14.4041 56.0601 11.2383 54.1075 9.2857L47.1451 2.3233Z"/>
</mask>
<path fill-rule="evenodd" clip-rule="evenodd" d="M47.1451 2.3233C45.1925 0.370681 42.0266 0.370684 40.074 2.32331L29.236 13.1613C28.455 13.9423 27.1887 13.9423 26.4076 13.1613L15.5696 2.32326C13.617 0.37064 10.4511 0.370639 8.49852 2.32326L1.53612 9.28566C-0.416503 11.2383 -0.4165 14.4041 1.53612 16.3567L12.3741 27.1947C13.1552 27.9758 13.1552 29.2421 12.3741 30.0232L1.53633 40.861C-0.416296 42.8136 -0.416296 45.9794 1.53633 47.9321L8.49872 54.8945C10.4513 56.8471 13.6172 56.8471 15.5698 54.8944L26.4076 44.0566C27.1886 43.2756 28.455 43.2756 29.236 44.0566L40.0738 54.8944C42.0264 56.847 45.1922 56.847 47.1449 54.8944L54.1073 47.932C56.0599 45.9794 56.0599 42.8136 54.1073 40.8609L43.2695 30.0232C42.4884 29.2421 42.4884 27.9758 43.2695 27.1947L54.1075 16.3568C56.0601 14.4041 56.0601 11.2383 54.1075 9.2857L47.1451 2.3233Z" fill="#80FF00"/>
<path d="M47.1451 2.3233L48.5593 0.909088L47.1451 2.3233ZM15.5696 2.32326L16.9838 0.909048L15.5696 2.32326ZM1.53612 16.3567L2.95033 14.9425L1.53612 16.3567ZM1.53633 47.9321L2.95054 46.5178L1.53633 47.9321ZM8.49872 54.8945L7.08451 56.3087L8.49872 54.8945ZM40.0738 54.8944L41.488 53.4802L40.0738 54.8944ZM54.1073 40.8609L52.693 42.2752L54.1073 40.8609ZM54.1075 9.2857L52.6933 10.6999L54.1075 9.2857ZM43.2695 30.0232L41.8553 31.4374L43.2695 30.0232ZM29.236 44.0566L27.8218 45.4709L29.236 44.0566ZM12.3741 27.1947L10.9599 28.609L12.3741 27.1947ZM41.4882 3.73752C42.6598 2.56594 44.5593 2.56595 45.7309 3.73752L48.5593 0.909088C45.8256 -1.82458 41.3935 -1.82458 38.6598 0.909091L41.4882 3.73752ZM30.6502 14.5755L41.4882 3.73752L38.6598 0.909091L27.8218 11.7471L30.6502 14.5755ZM14.1554 3.73748L24.9934 14.5755L27.8218 11.7471L16.9838 0.909048L14.1554 3.73748ZM9.91273 3.73748C11.0843 2.5659 12.9838 2.5659 14.1554 3.73748L16.9838 0.909048C14.2501 -1.82462 9.81797 -1.82462 7.0843 0.909048L9.91273 3.73748ZM2.95033 10.6999L9.91273 3.73748L7.0843 0.909048L0.121906 7.87144L2.95033 10.6999ZM2.95033 14.9425C1.77876 13.7709 1.77876 11.8714 2.95033 10.6999L0.121906 7.87144C-2.61177 10.6051 -2.61176 15.0373 0.121908 17.7709L2.95033 14.9425ZM13.7884 25.7805L2.95033 14.9425L0.121908 17.7709L10.9599 28.609L13.7884 25.7805ZM2.95054 42.2752L13.7884 31.4374L10.9599 28.609L0.122112 39.4468L2.95054 42.2752ZM2.95054 46.5178C1.77897 45.3463 1.77896 43.4468 2.95054 42.2752L0.122112 39.4468C-2.61156 42.1804 -2.61156 46.6126 0.122112 49.3463L2.95054 46.5178ZM9.91294 53.4802L2.95054 46.5178L0.122112 49.3463L7.08451 56.3087L9.91294 53.4802ZM14.1556 53.4802C12.984 54.6518 11.0845 54.6518 9.91294 53.4802L7.08451 56.3087C9.81818 59.0423 14.2503 59.0423 16.984 56.3087L14.1556 53.4802ZM24.9934 42.6424L14.1556 53.4802L16.984 56.3087L27.8218 45.4709L24.9934 42.6424ZM41.488 53.4802L30.6502 42.6424L27.8218 45.4709L38.6596 56.3086L41.488 53.4802ZM45.7307 53.4802C44.5591 54.6518 42.6596 54.6518 41.488 53.4802L38.6596 56.3086C41.3933 59.0423 45.8254 59.0423 48.5591 56.3086L45.7307 53.4802ZM52.6931 46.5178L45.7307 53.4802L48.5591 56.3086L55.5215 49.3462L52.6931 46.5178ZM52.693 42.2752C53.8646 43.4467 53.8646 45.3462 52.6931 46.5178L55.5215 49.3462C58.2551 46.6126 58.2551 42.1804 55.5215 39.4467L52.693 42.2752ZM41.8553 31.4374L52.693 42.2752L55.5215 39.4467L44.6837 28.609L41.8553 31.4374ZM52.6933 14.9426L41.8553 25.7805L44.6837 28.609L55.5217 17.771L52.6933 14.9426ZM52.6933 10.6999C53.8648 11.8715 53.8648 13.771 52.6933 14.9426L55.5217 17.771C58.2554 15.0373 58.2554 10.6052 55.5217 7.87148L52.6933 10.6999ZM45.7309 3.73752L52.6933 10.6999L55.5217 7.87148L48.5593 0.909088L45.7309 3.73752ZM44.6837 28.609L41.8553 25.7805C40.2932 27.3426 40.2932 29.8753 41.8553 31.4374L44.6837 28.609ZM27.8218 45.4709L30.6502 42.6424C29.0881 41.0803 26.5555 41.0803 24.9934 42.6424L27.8218 45.4709ZM10.9599 28.609L13.7884 31.4374C15.3504 29.8753 15.3505 27.3426 13.7884 25.7805L10.9599 28.609ZM27.8218 11.7471L24.9934 14.5755C26.5555 16.1376 29.0881 16.1376 30.6502 14.5755L27.8218 11.7471Z" fill="#2E2E2E" mask="url(#path-1-inside-1_3_48)"/>
</svg>
