<svg width="75" height="74" viewBox="0 0 75 74" fill="none" xmlns="http://www.w3.org/2000/svg">
<mask id="path-1-inside-1_14_1568" fill="white">
<path d="M70 37C72.7614 37 75.0351 39.2489 74.6582 41.9845C73.8935 47.5342 71.8582 52.8631 68.6801 57.5561C64.5596 63.6407 58.7029 68.3831 51.8506 71.1835C44.9984 73.984 37.4584 74.7167 30.1841 73.2891C22.9098 71.8614 16.228 68.3375 10.9835 63.163C5.73903 57.9884 2.1675 51.3956 0.720552 44.2183C-0.726394 37.041 0.0162313 29.6016 2.85452 22.8407C5.6928 16.0798 10.4993 10.3012 16.6661 6.23562C21.4412 3.08758 26.8658 1.07606 32.5143 0.328441C35.2518 -0.0338891 37.5 2.23858 37.5 5V32C37.5 34.7614 39.7386 37 42.5 37H70Z"/>
</mask>
<path d="M70 37C72.7614 37 75.0351 39.2489 74.6582 41.9845C73.8935 47.5342 71.8582 52.8631 68.6801 57.5561C64.5596 63.6407 58.7029 68.3831 51.8506 71.1835C44.9984 73.984 37.4584 74.7167 30.1841 73.2891C22.9098 71.8614 16.228 68.3375 10.9835 63.163C5.73903 57.9884 2.1675 51.3956 0.720552 44.2183C-0.726394 37.041 0.0162313 29.6016 2.85452 22.8407C5.6928 16.0798 10.4993 10.3012 16.6661 6.23562C21.4412 3.08758 26.8658 1.07606 32.5143 0.328441C35.2518 -0.0338891 37.5 2.23858 37.5 5V32C37.5 34.7614 39.7386 37 42.5 37H70Z" fill="#4D63B2" stroke="#8F8F8F" stroke-width="4" mask="url(#path-1-inside-1_14_1568)"/>
</svg>
