<svg width="65" height="66" viewBox="0 0 65 66" fill="none" xmlns="http://www.w3.org/2000/svg">
<mask id="path-1-inside-1_3_47" fill="white">
<path fill-rule="evenodd" clip-rule="evenodd" d="M27.3272 0.563477C24.5658 0.563477 22.3272 2.80206 22.3272 5.56348V20.8905C22.3272 21.995 21.4318 22.8905 20.3272 22.8905H5C2.23858 22.8905 0 25.129 0 27.8905V37.7368C0 40.4982 2.23858 42.7368 5 42.7368H20.3272C21.4318 42.7368 22.3272 43.6322 22.3272 44.7368V60.064C22.3272 62.8254 24.5658 65.064 27.3272 65.064H37.1735C39.9349 65.064 42.1735 62.8254 42.1735 60.064V44.7368C42.1735 43.6322 43.069 42.7368 44.1735 42.7368H59.5005C62.2619 42.7368 64.5005 40.4982 64.5005 37.7368V27.8905C64.5005 25.129 62.2619 22.8905 59.5005 22.8905H44.1735C43.069 22.8905 42.1735 21.995 42.1735 20.8905V5.56348C42.1735 2.80205 39.9349 0.563477 37.1735 0.563477H27.3272Z"/>
</mask>
<path fill-rule="evenodd" clip-rule="evenodd" d="M27.3272 0.563477C24.5658 0.563477 22.3272 2.80206 22.3272 5.56348V20.8905C22.3272 21.995 21.4318 22.8905 20.3272 22.8905H5C2.23858 22.8905 0 25.129 0 27.8905V37.7368C0 40.4982 2.23858 42.7368 5 42.7368H20.3272C21.4318 42.7368 22.3272 43.6322 22.3272 44.7368V60.064C22.3272 62.8254 24.5658 65.064 27.3272 65.064H37.1735C39.9349 65.064 42.1735 62.8254 42.1735 60.064V44.7368C42.1735 43.6322 43.069 42.7368 44.1735 42.7368H59.5005C62.2619 42.7368 64.5005 40.4982 64.5005 37.7368V27.8905C64.5005 25.129 62.2619 22.8905 59.5005 22.8905H44.1735C43.069 22.8905 42.1735 21.995 42.1735 20.8905V5.56348C42.1735 2.80205 39.9349 0.563477 37.1735 0.563477H27.3272Z" fill="#80FF00"/>
<path d="M24.3272 5.56348C24.3272 3.90662 25.6704 2.56348 27.3272 2.56348V-1.43652C23.4612 -1.43652 20.3272 1.69749 20.3272 5.56348H24.3272ZM24.3272 20.8905V5.56348H20.3272V20.8905H24.3272ZM5 24.8905H20.3272V20.8905H5V24.8905ZM2 27.8905C2 26.2336 3.34314 24.8905 5 24.8905V20.8905C1.13401 20.8905 -2 24.0245 -2 27.8905H2ZM2 37.7368V27.8905H-2V37.7368H2ZM5 40.7368C3.34315 40.7368 2 39.3936 2 37.7368H-2C-2 41.6028 1.13401 44.7368 5 44.7368V40.7368ZM20.3272 40.7368H5V44.7368H20.3272V40.7368ZM24.3272 60.064V44.7368H20.3272V60.064H24.3272ZM27.3272 63.064C25.6704 63.064 24.3272 61.7209 24.3272 60.064H20.3272C20.3272 63.93 23.4612 67.064 27.3272 67.064V63.064ZM37.1735 63.064H27.3272V67.064H37.1735V63.064ZM40.1735 60.064C40.1735 61.7208 38.8304 63.064 37.1735 63.064V67.064C41.0395 67.064 44.1735 63.93 44.1735 60.064H40.1735ZM40.1735 44.7368V60.064H44.1735V44.7368H40.1735ZM59.5005 40.7368H44.1735V44.7368H59.5005V40.7368ZM62.5005 37.7368C62.5005 39.3936 61.1574 40.7368 59.5005 40.7368V44.7368C63.3665 44.7368 66.5005 41.6028 66.5005 37.7368H62.5005ZM62.5005 27.8905V37.7368H66.5005V27.8905H62.5005ZM59.5005 24.8905C61.1574 24.8905 62.5005 26.2336 62.5005 27.8905H66.5005C66.5005 24.0245 63.3665 20.8905 59.5005 20.8905V24.8905ZM44.1735 24.8905H59.5005V20.8905H44.1735V24.8905ZM40.1735 5.56348V20.8905H44.1735V5.56348H40.1735ZM37.1735 2.56348C38.8304 2.56348 40.1735 3.90662 40.1735 5.56348H44.1735C44.1735 1.69748 41.0395 -1.43652 37.1735 -1.43652V2.56348ZM27.3272 2.56348H37.1735V-1.43652H27.3272V2.56348ZM44.1735 20.8905V20.8905H40.1735C40.1735 23.0996 41.9644 24.8905 44.1735 24.8905V20.8905ZM44.1735 44.7368V40.7368C41.9644 40.7368 40.1735 42.5276 40.1735 44.7368H44.1735ZM20.3272 44.7368H24.3272C24.3272 42.5276 22.5363 40.7368 20.3272 40.7368V44.7368ZM20.3272 20.8905V24.8905C22.5363 24.8905 24.3272 23.0996 24.3272 20.8905H20.3272Z" fill="#2E2E2E" mask="url(#path-1-inside-1_3_47)"/>
</svg>
