<svg width="66" height="65" viewBox="0 0 66 65" fill="none" xmlns="http://www.w3.org/2000/svg">
<mask id="path-1-inside-1_14_1571" fill="white">
<path fill-rule="evenodd" clip-rule="evenodd" d="M28.1431 0C25.3817 0 23.1431 2.23858 23.1431 5V17.327C23.1431 20.0884 20.9045 22.327 18.1431 22.327H5.81592C3.05449 22.327 0.815918 24.5656 0.815918 27.327V37.1733C0.815918 39.9347 3.0545 42.1733 5.81592 42.1733H18.1431C20.9045 42.1733 23.1431 44.4119 23.1431 47.1733V59.5005C23.1431 62.2619 25.3817 64.5005 28.1431 64.5005H37.9894C40.7509 64.5005 42.9894 62.2619 42.9894 59.5005V47.1733C42.9894 44.4119 45.228 42.1733 47.9894 42.1733H60.3164C63.0779 42.1733 65.3164 39.9347 65.3164 37.1733V27.327C65.3164 24.5656 63.0779 22.327 60.3164 22.327H47.9894C45.228 22.327 42.9894 20.0884 42.9894 17.327V5C42.9894 2.23858 40.7509 0 37.9894 0H28.1431Z"/>
</mask>
<path fill-rule="evenodd" clip-rule="evenodd" d="M28.1431 0C25.3817 0 23.1431 2.23858 23.1431 5V17.327C23.1431 20.0884 20.9045 22.327 18.1431 22.327H5.81592C3.05449 22.327 0.815918 24.5656 0.815918 27.327V37.1733C0.815918 39.9347 3.0545 42.1733 5.81592 42.1733H18.1431C20.9045 42.1733 23.1431 44.4119 23.1431 47.1733V59.5005C23.1431 62.2619 25.3817 64.5005 28.1431 64.5005H37.9894C40.7509 64.5005 42.9894 62.2619 42.9894 59.5005V47.1733C42.9894 44.4119 45.228 42.1733 47.9894 42.1733H60.3164C63.0779 42.1733 65.3164 39.9347 65.3164 37.1733V27.327C65.3164 24.5656 63.0779 22.327 60.3164 22.327H47.9894C45.228 22.327 42.9894 20.0884 42.9894 17.327V5C42.9894 2.23858 40.7509 0 37.9894 0H28.1431Z" fill="#4D63B2"/>
<path d="M25.1431 5C25.1431 3.34315 26.4863 2 28.1431 2V-2C24.2771 -2 21.1431 1.13401 21.1431 5H25.1431ZM25.1431 17.327V5H21.1431V17.327H25.1431ZM5.81592 24.327H18.1431V20.327H5.81592V24.327ZM2.81592 27.327C2.81592 25.6701 4.15906 24.327 5.81592 24.327V20.327C1.94993 20.327 -1.18408 23.461 -1.18408 27.327H2.81592ZM2.81592 37.1733V27.327H-1.18408V37.1733H2.81592ZM5.81592 40.1733C4.15907 40.1733 2.81592 38.8302 2.81592 37.1733H-1.18408C-1.18408 41.0393 1.94993 44.1733 5.81592 44.1733V40.1733ZM18.1431 40.1733H5.81592V44.1733H18.1431V40.1733ZM25.1431 59.5005V47.1733H21.1431V59.5005H25.1431ZM28.1431 62.5005C26.4863 62.5005 25.1431 61.1574 25.1431 59.5005H21.1431C21.1431 63.3665 24.2771 66.5005 28.1431 66.5005V62.5005ZM37.9894 62.5005H28.1431V66.5005H37.9894V62.5005ZM40.9894 59.5005C40.9894 61.1574 39.6463 62.5005 37.9894 62.5005V66.5005C41.8554 66.5005 44.9894 63.3665 44.9894 59.5005H40.9894ZM40.9894 47.1733V59.5005H44.9894V47.1733H40.9894ZM60.3164 40.1733H47.9894V44.1733H60.3164V40.1733ZM63.3164 37.1733C63.3164 38.8302 61.9733 40.1733 60.3164 40.1733V44.1733C64.1824 44.1733 67.3164 41.0393 67.3164 37.1733H63.3164ZM63.3164 27.327V37.1733H67.3164V27.327H63.3164ZM60.3164 24.327C61.9733 24.327 63.3164 25.6701 63.3164 27.327H67.3164C67.3164 23.461 64.1824 20.327 60.3164 20.327V24.327ZM47.9894 24.327H60.3164V20.327H47.9894V24.327ZM40.9894 5V17.327H44.9894V5H40.9894ZM37.9894 2C39.6463 2 40.9894 3.34315 40.9894 5H44.9894C44.9894 1.13401 41.8554 -2 37.9894 -2V2ZM28.1431 2H37.9894V-2H28.1431V2ZM47.9894 20.327C46.3326 20.327 44.9894 18.9838 44.9894 17.327H40.9894C40.9894 21.193 44.1234 24.327 47.9894 24.327V20.327ZM44.9894 47.1733C44.9894 45.5165 46.3326 44.1733 47.9894 44.1733V40.1733C44.1234 40.1733 40.9894 43.3073 40.9894 47.1733H44.9894ZM18.1431 44.1733C19.8 44.1733 21.1431 45.5164 21.1431 47.1733H25.1431C25.1431 43.3073 22.0091 40.1733 18.1431 40.1733V44.1733ZM21.1431 17.327C21.1431 18.9838 19.8 20.327 18.1431 20.327V24.327C22.0091 24.327 25.1431 21.193 25.1431 17.327H21.1431Z" fill="#8F8F8F" mask="url(#path-1-inside-1_14_1571)"/>
</svg>
