<svg width="76" height="74" viewBox="0 0 76 74" fill="none" xmlns="http://www.w3.org/2000/svg">
<mask id="path-1-inside-1_14_1570" fill="white">
<path d="M70.5342 37C73.2956 37 75.5693 39.2489 75.1924 41.9845C74.4276 47.5342 72.3924 52.8631 69.2143 57.5561C65.0937 63.6407 59.237 68.3831 52.3848 71.1835C45.5326 73.984 37.9926 74.7167 30.7183 73.2891C23.444 71.8614 16.7621 68.3375 11.5177 63.163C6.27321 57.9884 2.70168 51.3956 1.25473 44.2183C-0.192214 37.041 0.550411 29.6016 3.3887 22.8407C6.22698 16.0798 11.0335 10.3012 17.2003 6.23562C21.9753 3.08758 27.3999 1.07606 33.0485 0.328441C35.786 -0.0338891 38.0342 2.23858 38.0342 5V17.2C38.0342 19.9614 35.7369 22.1223 33.1239 23.0154C31.9213 23.4265 30.7702 23.9891 29.7006 24.6943C27.2339 26.3205 25.3113 28.6319 24.176 31.3363C23.0407 34.0406 22.7436 37.0164 23.3224 39.8873C23.9012 42.7583 25.3298 45.3954 27.4276 47.4652C29.5254 49.535 32.1981 50.9446 35.1078 51.5156C38.0175 52.0867 41.0335 51.7936 43.7744 50.6734C46.5153 49.5532 48.858 47.6563 50.5062 45.2224C51.2092 44.1844 51.7724 43.0686 52.1871 41.9031C53.1129 39.3015 55.2728 37 58.0342 37H70.5342Z"/>
</mask>
<path d="M70.5342 37C73.2956 37 75.5693 39.2489 75.1924 41.9845C74.4276 47.5342 72.3924 52.8631 69.2143 57.5561C65.0937 63.6407 59.237 68.3831 52.3848 71.1835C45.5326 73.984 37.9926 74.7167 30.7183 73.2891C23.444 71.8614 16.7621 68.3375 11.5177 63.163C6.27321 57.9884 2.70168 51.3956 1.25473 44.2183C-0.192214 37.041 0.550411 29.6016 3.3887 22.8407C6.22698 16.0798 11.0335 10.3012 17.2003 6.23562C21.9753 3.08758 27.3999 1.07606 33.0485 0.328441C35.786 -0.0338891 38.0342 2.23858 38.0342 5V17.2C38.0342 19.9614 35.7369 22.1223 33.1239 23.0154C31.9213 23.4265 30.7702 23.9891 29.7006 24.6943C27.2339 26.3205 25.3113 28.6319 24.176 31.3363C23.0407 34.0406 22.7436 37.0164 23.3224 39.8873C23.9012 42.7583 25.3298 45.3954 27.4276 47.4652C29.5254 49.535 32.1981 50.9446 35.1078 51.5156C38.0175 52.0867 41.0335 51.7936 43.7744 50.6734C46.5153 49.5532 48.858 47.6563 50.5062 45.2224C51.2092 44.1844 51.7724 43.0686 52.1871 41.9031C53.1129 39.3015 55.2728 37 58.0342 37H70.5342Z" fill="#4D63B2" stroke="#8F8F8F" stroke-width="4" mask="url(#path-1-inside-1_14_1570)"/>
</svg>
