<svg width="71" height="71" viewBox="0 0 71 71" fill="none" xmlns="http://www.w3.org/2000/svg">
<path d="M31.7686 4.4737C33.035 0.939374 38.0333 0.939374 39.2997 4.47369L45.5621 21.9509C46.1724 23.6542 47.5188 24.9911 49.2263 25.5895L66.7367 31.725C70.3064 32.9758 70.3064 38.0242 66.7367 39.275L49.2263 45.4106C47.5188 46.0089 46.1724 47.3458 45.5621 49.0491L39.2998 66.5263C38.0333 70.0606 33.035 70.0606 31.7686 66.5263L25.5063 49.0491C24.896 47.3458 23.5496 46.0089 21.842 45.4105L4.33162 39.275C0.761936 38.0242 0.761937 32.9758 4.33162 31.725L21.842 25.5894C23.5496 24.9911 24.896 23.6542 25.5063 21.9509L31.7686 4.4737Z" fill="#4D63B2" stroke="#8F8F8F" stroke-width="2"/>
</svg>
