<svg width="67" height="69" viewBox="0 0 67 69" fill="none" xmlns="http://www.w3.org/2000/svg">
<path d="M40.5388 1.68636C42.3446 0.202802 45.0782 1.26244 45.4123 3.57549L47.8444 20.4122C48.0522 21.8504 48.8753 23.1271 50.0996 23.9099L64.4317 33.074C66.4007 34.3329 66.2377 37.2602 64.1411 38.2928L48.88 45.8087C47.5764 46.4507 46.6165 47.6281 46.2504 49.0343L41.9637 65.4968C41.3748 67.7585 38.5404 68.508 36.9105 66.8331L25.0465 54.6415C24.0331 53.6 22.6167 53.051 21.1662 53.1373L4.1847 54.1477C1.85176 54.2865 0.263035 51.8224 1.3523 49.7547L9.28106 34.7039C9.95833 33.4183 10.0428 31.9016 9.51248 30.5488L3.30404 14.7106C2.45112 12.5348 4.30363 10.2624 6.60673 10.6594L23.371 13.5491C24.803 13.796 26.2715 13.4076 27.3943 12.4852L40.5388 1.68636Z" fill="#4D63B2" stroke="#8F8F8F" stroke-width="2"/>
</svg>
