<svg width="74" height="75" viewBox="0 0 74 75" fill="none" xmlns="http://www.w3.org/2000/svg">
<mask id="path-1-inside-1_14_1835" fill="white">
<path d="M74 37.5635C74 57.998 57.4345 74.5635 37 74.5635C16.5655 74.5635 0 57.998 0 37.5635C0 17.1289 16.5655 0.563477 37 0.563477C57.4345 0.563477 74 17.1289 74 37.5635ZM22.2 37.5635C22.2 45.7373 28.8262 52.3635 37 52.3635C45.1738 52.3635 51.8 45.7373 51.8 37.5635C51.8 29.3897 45.1738 22.7635 37 22.7635C28.8262 22.7635 22.2 29.3897 22.2 37.5635Z"/>
</mask>
<path d="M74 37.5635C74 57.998 57.4345 74.5635 37 74.5635C16.5655 74.5635 0 57.998 0 37.5635C0 17.1289 16.5655 0.563477 37 0.563477C57.4345 0.563477 74 17.1289 74 37.5635ZM22.2 37.5635C22.2 45.7373 28.8262 52.3635 37 52.3635C45.1738 52.3635 51.8 45.7373 51.8 37.5635C51.8 29.3897 45.1738 22.7635 37 22.7635C28.8262 22.7635 22.2 29.3897 22.2 37.5635Z" fill="#AC6CFF" stroke="#B9B9B9" stroke-opacity="0.62" stroke-width="4" mask="url(#path-1-inside-1_14_1835)"/>
</svg>
