<svg width="56" height="57" viewBox="0 0 56 57" fill="none" xmlns="http://www.w3.org/2000/svg">
<mask id="path-1-inside-1_14_1840" fill="white">
<path fill-rule="evenodd" clip-rule="evenodd" d="M47.1456 2.3233C45.1929 0.370681 42.0271 0.370684 40.0745 2.32331L29.2365 13.1613C28.4555 13.9423 27.1891 13.9423 26.4081 13.1613L15.5701 2.32326C13.6174 0.370639 10.4516 0.370641 8.499 2.32326L1.53661 9.28566C-0.416014 11.2383 -0.416013 14.4041 1.53661 16.3567L12.3746 27.1947C13.1557 27.9758 13.1557 29.2421 12.3746 30.0232L1.53681 40.861C-0.415808 42.8136 -0.415808 45.9794 1.53681 47.9321L8.49921 54.8945C10.4518 56.8471 13.6177 56.8471 15.5703 54.8944L26.4081 44.0566C27.1891 43.2756 28.4555 43.2756 29.2365 44.0566L40.0743 54.8944C42.0269 56.847 45.1927 56.847 47.1454 54.8944L54.1078 47.932C56.0604 45.9794 56.0604 42.8136 54.1078 40.8609L43.27 30.0232C42.4889 29.2421 42.4889 27.9758 43.27 27.1947L54.108 16.3568C56.0606 14.4041 56.0606 11.2383 54.108 9.2857L47.1456 2.3233Z"/>
</mask>
<path fill-rule="evenodd" clip-rule="evenodd" d="M47.1456 2.3233C45.1929 0.370681 42.0271 0.370684 40.0745 2.32331L29.2365 13.1613C28.4555 13.9423 27.1891 13.9423 26.4081 13.1613L15.5701 2.32326C13.6174 0.370639 10.4516 0.370641 8.499 2.32326L1.53661 9.28566C-0.416014 11.2383 -0.416013 14.4041 1.53661 16.3567L12.3746 27.1947C13.1557 27.9758 13.1557 29.2421 12.3746 30.0232L1.53681 40.861C-0.415808 42.8136 -0.415808 45.9794 1.53681 47.9321L8.49921 54.8945C10.4518 56.8471 13.6177 56.8471 15.5703 54.8944L26.4081 44.0566C27.1891 43.2756 28.4555 43.2756 29.2365 44.0566L40.0743 54.8944C42.0269 56.847 45.1927 56.847 47.1454 54.8944L54.1078 47.932C56.0604 45.9794 56.0604 42.8136 54.1078 40.8609L43.27 30.0232C42.4889 29.2421 42.4889 27.9758 43.27 27.1947L54.108 16.3568C56.0606 14.4041 56.0606 11.2383 54.108 9.2857L47.1456 2.3233Z" fill="#AC6CFF"/>
<path d="M15.5701 2.32326L16.9843 0.909048L15.5701 2.32326ZM1.53661 16.3567L2.95082 14.9425L1.53661 16.3567ZM40.0743 54.8944L41.4885 53.4802L40.0743 54.8944ZM54.1078 40.8609L52.6935 42.2752L54.1078 40.8609ZM43.27 30.0232L44.6842 28.609L43.27 30.0232ZM29.2365 44.0566L27.8223 45.4709L29.2365 44.0566ZM12.3746 27.1947L10.9604 28.609L12.3746 27.1947ZM41.4887 3.73752C42.6603 2.56594 44.5598 2.56595 45.7314 3.73752L48.5598 0.909088C45.8261 -1.82458 41.394 -1.82458 38.6603 0.909091L41.4887 3.73752ZM30.6507 14.5755L41.4887 3.73752L38.6603 0.909091L27.8223 11.7471L30.6507 14.5755ZM14.1559 3.73748L24.9939 14.5755L27.8223 11.7471L16.9843 0.909048L14.1559 3.73748ZM9.91322 3.73748C11.0848 2.5659 12.9843 2.5659 14.1559 3.73748L16.9843 0.909048C14.2506 -1.82462 9.81846 -1.82462 7.08479 0.909048L9.91322 3.73748ZM2.95082 10.6999L9.91322 3.73748L7.08479 0.909048L0.122394 7.87144L2.95082 10.6999ZM2.95082 14.9425C1.77925 13.7709 1.77925 11.8714 2.95082 10.6999L0.122394 7.87144C-2.61128 10.6051 -2.61127 15.0373 0.122396 17.7709L2.95082 14.9425ZM13.7888 25.7805L2.95082 14.9425L0.122396 17.7709L10.9604 28.609L13.7888 25.7805ZM2.95103 42.2752L13.7888 31.4374L10.9604 28.609L0.122601 39.4468L2.95103 42.2752ZM2.95103 46.5178C1.77945 45.3463 1.77945 43.4468 2.95103 42.2752L0.122601 39.4468C-2.61107 42.1804 -2.61107 46.6126 0.122601 49.3463L2.95103 46.5178ZM9.91342 53.4802L2.95103 46.5178L0.122601 49.3463L7.085 56.3087L9.91342 53.4802ZM14.1561 53.4802C12.9845 54.6518 11.085 54.6518 9.91342 53.4802L7.085 56.3087C9.81867 59.0423 14.2508 59.0423 16.9845 56.3087L14.1561 53.4802ZM24.9939 42.6424L14.1561 53.4802L16.9845 56.3087L27.8223 45.4709L24.9939 42.6424ZM41.4885 53.4802L30.6507 42.6424L27.8223 45.4709L38.6601 56.3086L41.4885 53.4802ZM45.7311 53.4802C44.5596 54.6518 42.6601 54.6518 41.4885 53.4802L38.6601 56.3086C41.3937 59.0423 45.8259 59.0423 48.5596 56.3086L45.7311 53.4802ZM52.6935 46.5178L45.7311 53.4802L48.5596 56.3086L55.522 49.3462L52.6935 46.5178ZM52.6935 42.2752C53.8651 43.4467 53.8651 45.3462 52.6935 46.5178L55.522 49.3462C58.2556 46.6126 58.2556 42.1804 55.522 39.4467L52.6935 42.2752ZM41.8558 31.4374L52.6935 42.2752L55.522 39.4467L44.6842 28.609L41.8558 31.4374ZM52.6938 14.9426L41.8558 25.7805L44.6842 28.609L55.5222 17.771L52.6938 14.9426ZM52.6938 10.6999C53.8653 11.8715 53.8653 13.771 52.6938 14.9426L55.5222 17.771C58.2558 15.0373 58.2558 10.6052 55.5222 7.87148L52.6938 10.6999ZM45.7314 3.73752L52.6938 10.6999L55.5222 7.87148L48.5598 0.909088L45.7314 3.73752ZM44.6842 28.609L41.8558 25.7805C40.2937 27.3426 40.2937 29.8753 41.8558 31.4374L44.6842 28.609ZM27.8223 45.4709L30.6507 42.6424C29.0886 41.0803 26.556 41.0803 24.9939 42.6424L27.8223 45.4709ZM10.9604 28.609L13.7888 31.4374C15.3509 29.8753 15.3509 27.3426 13.7888 25.7805L10.9604 28.609ZM27.8223 11.7471L24.9939 14.5755C26.556 16.1376 29.0886 16.1376 30.6507 14.5755L27.8223 11.7471Z" fill="#B9B9B9" fill-opacity="0.62" mask="url(#path-1-inside-1_14_1840)"/>
</svg>
