<svg width="75" height="74" viewBox="0 0 75 74" fill="none" xmlns="http://www.w3.org/2000/svg">
<mask id="path-1-inside-1_14_1834" fill="white">
<path d="M75 37C75 44.3179 72.8007 51.4715 68.6801 57.5561C64.5596 63.6407 58.7029 68.3831 51.8506 71.1835C44.9984 73.984 37.4584 74.7167 30.1841 73.2891C22.9098 71.8614 16.228 68.3375 10.9835 63.163C5.73903 57.9884 2.1675 51.3956 0.720552 44.2183C-0.726394 37.041 0.0162313 29.6016 2.85452 22.8407C5.6928 16.0798 10.4993 10.3012 16.6661 6.23562C22.833 2.17001 30.0832 -8.72652e-08 37.5 0V37H75Z"/>
</mask>
<path d="M75 37C75 44.3179 72.8007 51.4715 68.6801 57.5561C64.5596 63.6407 58.7029 68.3831 51.8506 71.1835C44.9984 73.984 37.4584 74.7167 30.1841 73.2891C22.9098 71.8614 16.228 68.3375 10.9835 63.163C5.73903 57.9884 2.1675 51.3956 0.720552 44.2183C-0.726394 37.041 0.0162313 29.6016 2.85452 22.8407C5.6928 16.0798 10.4993 10.3012 16.6661 6.23562C22.833 2.17001 30.0832 -8.72652e-08 37.5 0V37H75Z" fill="#AC6CFF" stroke="#B9B9B9" stroke-opacity="0.62" stroke-width="4" mask="url(#path-1-inside-1_14_1834)"/>
</svg>
