<svg width="75" height="74" viewBox="0 0 75 74" fill="none" xmlns="http://www.w3.org/2000/svg">
<mask id="path-1-inside-1_3_43" fill="white">
<path d="M75 37C75 44.3179 72.8007 51.4715 68.6801 57.5561C64.5596 63.6407 58.7029 68.3831 51.8506 71.1835C44.9984 73.984 37.4584 74.7167 30.1841 73.2891C22.9098 71.8614 16.228 68.3375 10.9835 63.163C5.73903 57.9884 2.1675 51.3956 0.720552 44.2183C-0.726394 37.041 0.0162313 29.6016 2.85452 22.8407C5.6928 16.0798 10.4993 10.3012 16.6661 6.23562C22.833 2.17001 30.0832 -8.72652e-08 37.5 0V22.2C34.5333 22.2 31.6332 23.068 29.1664 24.6943C26.6997 26.3205 24.7771 28.6319 23.6418 31.3363C22.5065 34.0406 22.2094 37.0164 22.7882 39.8873C23.367 42.7583 24.7956 45.3954 26.8934 47.4652C28.9912 49.535 31.6639 50.9446 34.5736 51.5156C37.4834 52.0867 40.4994 51.7936 43.2402 50.6734C45.9811 49.5532 48.3238 47.6563 49.972 45.2224C51.6203 42.7886 52.5 39.9272 52.5 37H75Z"/>
</mask>
<path d="M75 37C75 44.3179 72.8007 51.4715 68.6801 57.5561C64.5596 63.6407 58.7029 68.3831 51.8506 71.1835C44.9984 73.984 37.4584 74.7167 30.1841 73.2891C22.9098 71.8614 16.228 68.3375 10.9835 63.163C5.73903 57.9884 2.1675 51.3956 0.720552 44.2183C-0.726394 37.041 0.0162313 29.6016 2.85452 22.8407C5.6928 16.0798 10.4993 10.3012 16.6661 6.23562C22.833 2.17001 30.0832 -8.72652e-08 37.5 0V22.2C34.5333 22.2 31.6332 23.068 29.1664 24.6943C26.6997 26.3205 24.7771 28.6319 23.6418 31.3363C22.5065 34.0406 22.2094 37.0164 22.7882 39.8873C23.367 42.7583 24.7956 45.3954 26.8934 47.4652C28.9912 49.535 31.6639 50.9446 34.5736 51.5156C37.4834 52.0867 40.4994 51.7936 43.2402 50.6734C45.9811 49.5532 48.3238 47.6563 49.972 45.2224C51.6203 42.7886 52.5 39.9272 52.5 37H75Z" fill="#80FF00" stroke="#2E2E2E" stroke-width="4" mask="url(#path-1-inside-1_3_43)"/>
</svg>
