<svg width="56" height="56" viewBox="0 0 56 56" fill="none" xmlns="http://www.w3.org/2000/svg">
<path d="M27.0591 2.12999C27.3765 1.24824 28.6235 1.24823 28.9409 2.12999L35.1083 19.2638C35.4147 20.1149 36.0889 20.7824 36.943 21.0804L54.2566 27.1193C55.1508 27.4312 55.1508 28.6958 54.2566 29.0077L36.943 35.0466C36.0889 35.3445 35.4147 36.012 35.1083 36.8632L28.9409 53.997C28.6235 54.8787 27.3765 54.8787 27.0591 53.997L20.8917 36.8632C20.5853 36.012 19.9112 35.3445 19.057 35.0466L1.74345 29.0077C0.849223 28.6958 0.849235 27.4312 1.74344 27.1193L19.057 21.0804C19.9111 20.7824 20.5853 20.115 20.8917 19.2638L27.0591 2.12999Z" fill="#80FF00" stroke="#2E2E2E" stroke-width="2"/>
</svg>
