<svg width="67" height="70" viewBox="0 0 67 70" fill="none" xmlns="http://www.w3.org/2000/svg">
<path d="M39.9367 1.5713C42.3445 -0.406779 45.9893 1.00607 46.4348 4.09014L48.867 20.9269C49.0332 22.0774 49.6917 23.0988 50.6711 23.725L65.0032 32.8891C67.6285 34.5677 67.4111 38.4708 64.6157 39.8475L49.3546 47.3634C48.3117 47.877 47.5438 48.8189 47.2509 49.9439L42.9642 66.4064C42.179 69.422 38.3998 70.4213 36.2266 68.1881L24.3626 55.9965C23.5518 55.1634 22.4188 54.7241 21.2583 54.7932L4.27688 55.8035C1.16629 55.9886 -0.95201 52.7032 0.500343 49.9462L8.42911 34.8955C8.97092 33.867 9.0385 32.6536 8.61424 31.5713L2.4058 15.7332C1.26857 12.8321 3.73859 9.80218 6.80939 10.3315L23.5736 13.2213C24.7192 13.4187 25.8941 13.1081 26.7923 12.3701L39.9367 1.5713Z" fill="#AC6CFF"/>
<path d="M40.5715 2.34398C42.3773 0.86042 45.111 1.92006 45.4451 4.23311L47.8772 21.0698C48.085 22.508 48.9081 23.7847 50.1324 24.5675L64.4645 33.7316C66.4335 34.9906 66.2705 37.9178 64.1739 38.9504L48.9127 46.4663C47.6091 47.1083 46.6493 48.2857 46.2832 49.6919L41.9965 66.1544C41.4076 68.4161 38.5732 69.1656 36.9433 67.4907L25.0793 55.2991C24.0658 54.2577 22.6495 53.7087 21.1989 53.795L4.21749 54.8053C1.88455 54.9441 0.295821 52.48 1.38508 50.4123L9.31385 35.3616C9.99112 34.0759 10.0756 32.5593 9.54527 31.2064L3.33683 15.3682C2.4839 13.1924 4.33642 10.92 6.63952 11.317L23.4038 14.2067C24.8358 14.4536 26.3043 14.0652 27.4271 13.1428L40.5715 2.34398Z" stroke="#B9B9B9" stroke-opacity="0.62" stroke-width="2"/>
</svg>
