<svg width="56" height="56" viewBox="0 0 56 56" fill="none" xmlns="http://www.w3.org/2000/svg">
<path d="M26.1182 1.79131C26.753 0.0277994 29.247 0.0277998 29.8818 1.79131L36.0492 18.9251C36.2535 19.4925 36.7029 19.9375 37.2724 20.1361L54.5859 26.1751C56.3743 26.7989 56.3743 29.3281 54.5859 29.9519L37.2724 35.9908C36.7029 36.1894 36.2535 36.6344 36.0492 37.2019L29.8818 54.3356C29.247 56.0992 26.753 56.0992 26.1182 54.3356L19.9508 37.2019C19.7465 36.6344 19.2971 36.1894 18.7276 35.9908L1.41411 29.9519C-0.374322 29.3281 -0.374328 26.7989 1.4141 26.1751L18.7276 20.1361C19.2971 19.9375 19.7465 19.4925 19.9508 18.9251L26.1182 1.79131Z" fill="#AC6CFF"/>
<path d="M27.0591 2.12999C27.3765 1.24824 28.6235 1.24823 28.9409 2.12999L35.1083 19.2638C35.4147 20.1149 36.0889 20.7824 36.943 21.0804L54.2566 27.1193C55.1508 27.4312 55.1508 28.6958 54.2566 29.0077L36.943 35.0466C36.0889 35.3445 35.4147 36.012 35.1083 36.8632L28.9409 53.997C28.6235 54.8787 27.3765 54.8787 27.0591 53.997L20.8917 36.8632C20.5853 36.012 19.9112 35.3445 19.057 35.0466L1.74345 29.0077C0.849223 28.6958 0.849235 27.4312 1.74344 27.1193L19.057 21.0804C19.9111 20.7824 20.5853 20.115 20.8917 19.2638L27.0591 2.12999Z" stroke="#B9B9B9" stroke-opacity="0.62" stroke-width="2"/>
</svg>
