<svg width="67" height="70" viewBox="0 0 67 70" fill="none" xmlns="http://www.w3.org/2000/svg">
<path d="M40.5715 2.34398C42.3773 0.86042 45.111 1.92006 45.4451 4.23311L47.8772 21.0698C48.085 22.508 48.9081 23.7847 50.1324 24.5675L64.4645 33.7316C66.4335 34.9906 66.2705 37.9178 64.1739 38.9504L48.9127 46.4663C47.6091 47.1083 46.6493 48.2857 46.2832 49.6919L41.9965 66.1544C41.4076 68.4161 38.5732 69.1656 36.9433 67.4907L25.0793 55.2991C24.0658 54.2577 22.6495 53.7087 21.1989 53.795L4.21749 54.8053C1.88455 54.9441 0.295821 52.48 1.38508 50.4123L9.31385 35.3616C9.99112 34.0759 10.0756 32.5593 9.54527 31.2064L3.33683 15.3682C2.4839 13.1924 4.33642 10.92 6.63952 11.317L23.4038 14.2067C24.8358 14.4536 26.3043 14.0652 27.4271 13.1428L40.5715 2.34398Z" fill="#80FF00" stroke="#2E2E2E" stroke-width="2"/>
</svg>
